<svg width="244" height="49" viewBox="0 0 244 49" fill="none" xmlns="http://www.w3.org/2000/svg">
<path fill-rule="evenodd" clip-rule="evenodd" d="M33 48.7326C56 48.7326 65 37.9874 65 24.7326C65 11.4777 55.5 0.732574 33 0.732574C10.5 0.732574 0 11.4777 0 24.7326C0 37.9874 10 48.7326 33 48.7326ZM48 24.7326C48 33.5691 40.8366 40.7326 32 40.7326C23.1634 40.7326 16 33.5691 16 24.7326C16 15.896 23.1634 8.73257 32 8.73257C40.8366 8.73257 48 15.896 48 24.7326ZM32 32.7326C36.4183 32.7326 38 29.1509 38 24.7326C38 20.3143 36.4183 16.7326 32 16.7326C27.5817 16.7326 26 20.3143 26 24.7326C26 29.1509 27.5817 32.7326 32 32.7326Z" fill="#7A6E62"/>
<path fill-rule="evenodd" clip-rule="evenodd" d="M32 32.7326C36.4183 32.7326 38 29.1509 38 24.7326C38 20.3143 36.4183 16.7326 32 16.7326C27.5817 16.7326 26 20.3143 26 24.7326C26 29.1509 27.5817 32.7326 32 32.7326Z" fill="#7A6E62"/>
<path d="M38 24.7326C38 29.1509 36.4183 32.7326 32 32.7326C27.5817 32.7326 26 29.1509 26 24.7326C26 20.3143 27.5817 16.7326 32 16.7326C36.4183 16.7326 38 20.3143 38 24.7326Z" fill="#7A6E62"/>
<path d="M117.982 39.7326V0H126.895V12.6715C128.505 9.98684 131.512 8.91298 134.68 8.91298C139.244 8.91298 141.929 10.5238 143.539 13.1547C145.15 15.732 145.58 19.2757 145.58 23.0878V39.7326H136.667V23.5174C136.667 21.8529 136.452 20.2958 135.754 19.1683C135.002 18.0407 133.821 17.289 131.888 17.289C129.418 17.289 128.13 18.4166 127.539 19.7052C126.895 20.9938 126.895 22.4435 126.895 23.1952V39.7326H117.982Z" fill="#7A6E62"/>
<path d="M173.33 18.3092H164.578C164.524 17.6649 164.417 16.0541 161.786 16.0541C159.907 16.0541 159.263 17.2353 159.263 18.0407C159.263 19.3831 161.464 20.2958 163.826 20.9938C168.874 22.3898 174.243 23.8932 174.243 30.3364C174.243 36.8869 168.712 40.7527 162.108 40.7527C157.598 40.7527 150.779 38.7124 149.974 30.8733H158.833C159.209 33.6116 161.84 33.6116 162.216 33.6116C163.719 33.6116 165.33 32.7525 165.33 31.3028C165.33 29.2625 163.128 28.994 157.437 26.7926C153.571 25.5577 150.35 23.0342 150.35 19.0072C150.35 12.8325 155.719 8.91298 161.894 8.91298C165.813 8.91298 172.578 10.4701 173.33 18.3092Z" fill="#7A6E62"/>
<path d="M208.178 27.9202H186.003C186.379 31.0881 189.385 33.1821 192.875 33.1821C195.721 33.1821 197.225 31.9471 198.298 30.3901H207.426C205.976 33.719 203.882 36.2962 201.359 38.0144C198.889 39.7863 195.936 40.699 192.875 40.699C184.338 40.699 177.09 33.7727 177.09 24.9134C177.09 16.591 183.64 8.91298 192.714 8.91298C197.278 8.91298 201.198 10.6848 203.99 13.6379C207.748 17.6649 208.876 22.4435 208.178 27.9202ZM186.11 21.1549H199.426C199.211 19.7589 197.386 16.43 192.768 16.43C188.15 16.43 186.325 19.7589 186.11 21.1549Z" fill="#7A6E62"/>
<path d="M242.889 27.9202H220.714C221.09 31.0881 224.097 33.1821 227.587 33.1821C230.433 33.1821 231.936 31.9471 233.01 30.3901H242.138C240.688 33.719 238.594 36.2962 236.07 38.0144C233.601 39.7863 230.647 40.699 227.587 40.699C219.05 40.699 211.801 33.7727 211.801 24.9134C211.801 16.591 218.352 8.91298 227.426 8.91298C231.99 8.91298 235.909 10.6848 238.701 13.6379C242.46 17.6649 243.587 22.4435 242.889 27.9202ZM220.822 21.1549H234.137C233.923 19.7589 232.097 16.43 227.48 16.43C222.862 16.43 221.036 19.7589 220.822 21.1549Z" fill="#7A6E62"/>
<path d="M97 8.73257C105.837 8.73257 113 15.896 113 24.7326C113 33.5691 105.837 40.7326 97 40.7326C88.1634 40.7326 81 33.5691 81 24.7326C81 15.896 88.1634 8.73257 97 8.73257ZM97 16.7326C92.5817 16.7326 91 20.3143 91 24.7326C91 29.1509 92.5817 32.7326 97 32.7326C101.418 32.7326 103 29.1509 103 24.7326C103 20.3143 101.418 16.7326 97 16.7326Z" fill="#7A6E62"/>
</svg>
