<svg width="65" height="48" viewBox="0 0 65 48" fill="none" xmlns="http://www.w3.org/2000/svg">
<path fill-rule="evenodd" clip-rule="evenodd" d="M33 48C56 48 65 37.2548 65 24C65 10.7452 55.5 0 33 0C10.5 0 0 10.7452 0 24C0 37.2548 10 48 33 48ZM48 24C48 32.8366 40.8366 40 32 40C23.1634 40 16 32.8366 16 24C16 15.1634 23.1634 8 32 8C40.8366 8 48 15.1634 48 24ZM32 32C36.4183 32 38 28.4183 38 24C38 19.5817 36.4183 16 32 16C27.5817 16 26 19.5817 26 24C26 28.4183 27.5817 32 32 32Z" fill="#7A6E62"/>
<path fill-rule="evenodd" clip-rule="evenodd" d="M32 32C36.4183 32 38 28.4183 38 24C38 19.5817 36.4183 16 32 16C27.5817 16 26 19.5817 26 24C26 28.4183 27.5817 32 32 32Z" fill="#7A6E62"/>
<path d="M38 24C38 28.4183 36.4183 32 32 32C27.5817 32 26 28.4183 26 24C26 19.5817 27.5817 16 32 16C36.4183 16 38 19.5817 38 24Z" fill="#7A6E62"/>
</svg>
