<svg width="163" height="41" viewBox="0 0 163 41" fill="none" xmlns="http://www.w3.org/2000/svg">
<path d="M36.9817 39.7326V0H45.8947V12.6715C47.5055 9.98684 50.5123 8.91298 53.6801 8.91298C58.244 8.91298 60.9287 10.5238 62.5394 13.1547C64.1502 15.732 64.5798 19.2757 64.5798 23.0878V39.7326H55.6668V23.5174C55.6668 21.8529 55.452 20.2958 54.754 19.1683C54.0023 18.0407 52.8211 17.289 50.8881 17.289C48.4183 17.289 47.1296 18.4166 46.539 19.7052C45.8947 20.9938 45.8947 22.4435 45.8947 23.1952V39.7326H36.9817Z" fill="#7A6E62"/>
<path d="M92.33 18.3092H83.5782C83.5245 17.6649 83.4171 16.0541 80.7861 16.0541C78.9069 16.0541 78.2626 17.2353 78.2626 18.0407C78.2626 19.3831 80.464 20.2958 82.8264 20.9938C87.8736 22.3898 93.2428 23.8932 93.2428 30.3364C93.2428 36.8869 87.7125 40.7527 81.1083 40.7527C76.5981 40.7527 69.7791 38.7124 68.9737 30.8733H77.833C78.2089 33.6116 80.8398 33.6116 81.2157 33.6116C82.7191 33.6116 84.3298 32.7525 84.3298 31.3028C84.3298 29.2625 82.1285 28.994 76.437 26.7926C72.5712 25.5577 69.3496 23.0342 69.3496 19.0072C69.3496 12.8325 74.7189 8.91298 80.8935 8.91298C84.8131 8.91298 91.5784 10.4701 92.33 18.3092Z" fill="#7A6E62"/>
<path d="M127.178 27.9202H105.003C105.379 31.0881 108.385 33.1821 111.875 33.1821C114.721 33.1821 116.225 31.9471 117.298 30.3901H126.426C124.976 33.719 122.882 36.2962 120.359 38.0144C117.889 39.7863 114.936 40.699 111.875 40.699C103.338 40.699 96.0898 33.7727 96.0898 24.9134C96.0898 16.591 102.64 8.91298 111.714 8.91298C116.278 8.91298 120.198 10.6848 122.99 13.6379C126.748 17.6649 127.876 22.4435 127.178 27.9202ZM105.11 21.1549H118.426C118.211 19.7589 116.386 16.43 111.768 16.43C107.15 16.43 105.325 19.7589 105.11 21.1549Z" fill="#7A6E62"/>
<path d="M161.889 27.9202H139.714C140.09 31.0881 143.097 33.1821 146.587 33.1821C149.433 33.1821 150.936 31.9471 152.01 30.3901H161.138C159.688 33.719 157.594 36.2962 155.07 38.0144C152.601 39.7863 149.647 40.699 146.587 40.699C138.05 40.699 130.801 33.7727 130.801 24.9134C130.801 16.591 137.352 8.91298 146.426 8.91298C150.99 8.91298 154.909 10.6848 157.701 13.6379C161.46 17.6649 162.587 22.4435 161.889 27.9202ZM139.822 21.1549H153.137C152.923 19.7589 151.097 16.43 146.48 16.43C141.862 16.43 140.036 19.7589 139.822 21.1549Z" fill="#7A6E62"/>
<path d="M16 8.73257C24.8366 8.73257 32 15.896 32 24.7326C32 33.5691 24.8366 40.7326 16 40.7326C7.16344 40.7326 0 33.5691 0 24.7326C0 15.896 7.16344 8.73257 16 8.73257ZM16 16.7326C11.5817 16.7326 10 20.3143 10 24.7326C10 29.1509 11.5817 32.7326 16 32.7326C20.4183 32.7326 22 29.1509 22 24.7326C22 20.3143 20.4183 16.7326 16 16.7326Z" fill="#7A6E62"/>
</svg>
